<svg id="my-svg" width="100%" xmlns="http://www.w3.org/2000/svg" xmlns:xlink="http://www.w3.org/1999/xlink" class="flowchart" style="max-width: 696px; background-color: white;" viewBox="0 0 696 959" role="graphics-document document" aria-roledescription="flowchart-v2"><style>#my-svg{font-family:"trebuchet ms",verdana,arial,sans-serif;font-size:16px;fill:#333;}@keyframes edge-animation-frame{from{stroke-dashoffset:0;}}@keyframes dash{to{stroke-dashoffset:0;}}#my-svg .edge-animation-slow{stroke-dasharray:9,5!important;stroke-dashoffset:900;animation:dash 50s linear infinite;stroke-linecap:round;}#my-svg .edge-animation-fast{stroke-dasharray:9,5!important;stroke-dashoffset:900;animation:dash 20s linear infinite;stroke-linecap:round;}#my-svg .error-icon{fill:#552222;}#my-svg .error-text{fill:#552222;stroke:#552222;}#my-svg .edge-thickness-normal{stroke-width:1px;}#my-svg .edge-thickness-thick{stroke-width:3.5px;}#my-svg .edge-pattern-solid{stroke-dasharray:0;}#my-svg .edge-thickness-invisible{stroke-width:0;fill:none;}#my-svg .edge-pattern-dashed{stroke-dasharray:3;}#my-svg .edge-pattern-dotted{stroke-dasharray:2;}#my-svg .marker{fill:#333333;stroke:#333333;}#my-svg .marker.cross{stroke:#333333;}#my-svg svg{font-family:"trebuchet ms",verdana,arial,sans-serif;font-size:16px;}#my-svg p{margin:0;}#my-svg .label{font-family:"trebuchet ms",verdana,arial,sans-serif;color:#333;}#my-svg .cluster-label text{fill:#333;}#my-svg .cluster-label span{color:#333;}#my-svg .cluster-label span p{background-color:transparent;}#my-svg .label text,#my-svg span{fill:#333;color:#333;}#my-svg .node rect,#my-svg .node circle,#my-svg .node ellipse,#my-svg .node polygon,#my-svg .node path{fill:#ECECFF;stroke:#9370DB;stroke-width:1px;}#my-svg .rough-node .label text,#my-svg .node .label text,#my-svg .image-shape .label,#my-svg .icon-shape .label{text-anchor:middle;}#my-svg .node .katex path{fill:#000;stroke:#000;stroke-width:1px;}#my-svg .rough-node .label,#my-svg .node .label,#my-svg .image-shape .label,#my-svg .icon-shape .label{text-align:center;}#my-svg .node.clickable{cursor:pointer;}#my-svg .root .anchor path{fill:#333333!important;stroke-width:0;stroke:#333333;}#my-svg .arrowheadPath{fill:#333333;}#my-svg .edgePath .path{stroke:#333333;stroke-width:1px;}#my-svg .flowchart-link{stroke:#333333;fill:none;}#my-svg .edgeLabel{background-color:rgba(232,232,232, 0.8);text-align:center;}#my-svg .edgeLabel p{background-color:rgba(232,232,232, 0.8);}#my-svg .edgeLabel rect{opacity:0.5;background-color:rgba(232,232,232, 0.8);fill:rgba(232,232,232, 0.8);}#my-svg .labelBkg{background-color:rgba(232, 232, 232, 0.5);}#my-svg .cluster rect{fill:#ffffde;stroke:#aaaa33;stroke-width:1px;}#my-svg .cluster text{fill:#333;}#my-svg .cluster span{color:#333;}#my-svg div.mermaidTooltip{position:absolute;text-align:center;max-width:200px;padding:2px;font-family:"trebuchet ms",verdana,arial,sans-serif;font-size:12px;background:hsl(80, 100%, 96.2745098039%);border:1px solid #aaaa33;border-radius:2px;pointer-events:none;z-index:100;}#my-svg .flowchartTitleText{text-anchor:middle;font-size:18px;fill:#333;}#my-svg rect.text{fill:none;stroke-width:0;}#my-svg .icon-shape,#my-svg .image-shape{background-color:rgba(232,232,232, 0.8);text-align:center;}#my-svg .icon-shape p,#my-svg .image-shape p{background-color:rgba(232,232,232, 0.8);padding:2px;}#my-svg .icon-shape .label rect,#my-svg .image-shape .label rect{opacity:0.5;background-color:rgba(232,232,232, 0.8);fill:rgba(232,232,232, 0.8);}#my-svg .label-icon{display:inline-block;height:1em;overflow:visible;vertical-align:-0.125em;}#my-svg .node .label-icon path{fill:currentColor;stroke:revert;stroke-width:revert;}#my-svg .node .neo-node{stroke:#9370DB;}#my-svg [data-look="neo"].node rect,#my-svg [data-look="neo"].cluster rect,#my-svg [data-look="neo"].node polygon{stroke:#9370DB;filter:drop-shadow(1px 2px 2px rgba(185, 185, 185, 1));}#my-svg [data-look="neo"].node path{stroke:#9370DB;stroke-width:1px;}#my-svg [data-look="neo"].node .outer-path{filter:drop-shadow(1px 2px 2px rgba(185, 185, 185, 1));}#my-svg [data-look="neo"].node .neo-line path{stroke:#9370DB;filter:none;}#my-svg [data-look="neo"].node circle{stroke:#9370DB;filter:drop-shadow(1px 2px 2px rgba(185, 185, 185, 1));}#my-svg [data-look="neo"].node circle .state-start{fill:#000000;}#my-svg [data-look="neo"].icon-shape .icon{fill:#9370DB;filter:drop-shadow(1px 2px 2px rgba(185, 185, 185, 1));}#my-svg [data-look="neo"].icon-shape .icon-neo path{stroke:#9370DB;filter:drop-shadow(1px 2px 2px rgba(185, 185, 185, 1));}#my-svg :root{--mermaid-font-family:"trebuchet ms",verdana,arial,sans-serif;}</style><g><marker id="my-svg_flowchart-v2-pointEnd" class="marker flowchart-v2" viewBox="0 0 10 10" refX="5" refY="5" markerUnits="userSpaceOnUse" markerWidth="8" markerHeight="8" orient="auto"><path d="M 0 0 L 10 5 L 0 10 z" class="arrowMarkerPath" style="stroke-width: 1; stroke-dasharray: 1, 0;"/></marker><marker id="my-svg_flowchart-v2-pointStart" class="marker flowchart-v2" viewBox="0 0 10 10" refX="4.5" refY="5" markerUnits="userSpaceOnUse" markerWidth="8" markerHeight="8" orient="auto"><path d="M 0 5 L 10 10 L 10 0 z" class="arrowMarkerPath" style="stroke-width: 1; stroke-dasharray: 1, 0;"/></marker><marker id="my-svg_flowchart-v2-pointEnd-margin" class="marker flowchart-v2" viewBox="0 0 11.5 14" refX="11.5" refY="7" markerUnits="userSpaceOnUse" markerWidth="10.5" markerHeight="14" orient="auto"><path d="M 0 0 L 11.5 7 L 0 14 z" class="arrowMarkerPath" style="stroke-width: 0; stroke-dasharray: 1, 0;"/></marker><marker id="my-svg_flowchart-v2-pointStart-margin" class="marker flowchart-v2" viewBox="0 0 11.5 14" refX="1" refY="7" markerUnits="userSpaceOnUse" markerWidth="11.5" markerHeight="14" orient="auto"><polygon points="0,7 11.5,14 11.5,0" class="arrowMarkerPath" style="stroke-width: 0; stroke-dasharray: 1, 0;"/></marker><marker id="my-svg_flowchart-v2-circleEnd" class="marker flowchart-v2" viewBox="0 0 10 10" refX="11" refY="5" markerUnits="userSpaceOnUse" markerWidth="11" markerHeight="11" orient="auto"><circle cx="5" cy="5" r="5" class="arrowMarkerPath" style="stroke-width: 1; stroke-dasharray: 1, 0;"/></marker><marker id="my-svg_flowchart-v2-circleStart" class="marker flowchart-v2" viewBox="0 0 10 10" refX="-1" refY="5" markerUnits="userSpaceOnUse" markerWidth="11" markerHeight="11" orient="auto"><circle cx="5" cy="5" r="5" class="arrowMarkerPath" style="stroke-width: 1; stroke-dasharray: 1, 0;"/></marker><marker id="my-svg_flowchart-v2-circleEnd-margin" class="marker flowchart-v2" viewBox="0 0 10 10" refY="5" refX="12.25" markerUnits="userSpaceOnUse" markerWidth="14" markerHeight="14" orient="auto"><circle cx="5" cy="5" r="5" class="arrowMarkerPath" style="stroke-width: 0; stroke-dasharray: 1, 0;"/></marker><marker id="my-svg_flowchart-v2-circleStart-margin" class="marker flowchart-v2" viewBox="0 0 10 10" refX="-2" refY="5" markerUnits="userSpaceOnUse" markerWidth="14" markerHeight="14" orient="auto"><circle cx="5" cy="5" r="5" class="arrowMarkerPath" style="stroke-width: 0; stroke-dasharray: 1, 0;"/></marker><marker id="my-svg_flowchart-v2-crossEnd" class="marker cross flowchart-v2" viewBox="0 0 11 11" refX="12" refY="5.2" markerUnits="userSpaceOnUse" markerWidth="11" markerHeight="11" orient="auto"><path d="M 1,1 l 9,9 M 10,1 l -9,9" class="arrowMarkerPath" style="stroke-width: 2; stroke-dasharray: 1, 0;"/></marker><marker id="my-svg_flowchart-v2-crossStart" class="marker cross flowchart-v2" viewBox="0 0 11 11" refX="-1" refY="5.2" markerUnits="userSpaceOnUse" markerWidth="11" markerHeight="11" orient="auto"><path d="M 1,1 l 9,9 M 10,1 l -9,9" class="arrowMarkerPath" style="stroke-width: 2; stroke-dasharray: 1, 0;"/></marker><marker id="my-svg_flowchart-v2-crossEnd-margin" class="marker cross flowchart-v2" viewBox="0 0 15 15" refX="17.7" refY="7.5" markerUnits="userSpaceOnUse" markerWidth="12" markerHeight="12" orient="auto"><path d="M 1,1 L 14,14 M 1,14 L 14,1" class="arrowMarkerPath" style="stroke-width: 2.5;"/></marker><marker id="my-svg_flowchart-v2-crossStart-margin" class="marker cross flowchart-v2" viewBox="0 0 15 15" refX="-3.5" refY="7.5" markerUnits="userSpaceOnUse" markerWidth="12" markerHeight="12" orient="auto"><path d="M 1,1 L 14,14 M 1,14 L 14,1" class="arrowMarkerPath" style="stroke-width: 2.5; stroke-dasharray: 1, 0;"/></marker><g class="root"><g class="clusters"/><g class="edgePaths"><path d="M421,47.5L420.917,51.583C420.833,55.667,420.667,63.833,420.583,71.417C420.5,79,420.5,86,420.5,89.5L420.5,93" id="my-svg-L_Start_Register_0" class="edge-thickness-normal edge-pattern-solid edge-thickness-normal edge-pattern-solid flowchart-link" style=";" data-edge="true" data-et="edge" data-id="L_Start_Register_0" data-points="W3sieCI6NDIxLCJ5Ijo0Ny41fSx7IngiOjQyMC41LCJ5Ijo3Mn0seyJ4Ijo0MjAuNSwieSI6OTd9XQ==" data-look="classic" marker-end="url(#my-svg_flowchart-v2-pointEnd)"/><path d="M420.5,151L420.5,155.167C420.5,159.333,420.5,167.667,420.5,175.333C420.5,183,420.5,190,420.5,193.5L420.5,197" id="my-svg-L_Register_Login_0" class="edge-thickness-normal edge-pattern-solid edge-thickness-normal edge-pattern-solid flowchart-link" style=";" data-edge="true" data-et="edge" data-id="L_Register_Login_0" data-points="W3sieCI6NDIwLjUsInkiOjE1MX0seyJ4Ijo0MjAuNSwieSI6MTc2fSx7IngiOjQyMC41LCJ5IjoyMDF9XQ==" data-look="classic" marker-end="url(#my-svg_flowchart-v2-pointEnd)"/><path d="M420.5,255L420.5,259.167C420.5,263.333,420.5,271.667,420.5,279.333C420.5,287,420.5,294,420.5,297.5L420.5,301" id="my-svg-L_Login_CreateLanguage_0" class="edge-thickness-normal edge-pattern-solid edge-thickness-normal edge-pattern-solid flowchart-link" style=";" data-edge="true" data-et="edge" data-id="L_Login_CreateLanguage_0" data-points="W3sieCI6NDIwLjUsInkiOjI1NX0seyJ4Ijo0MjAuNSwieSI6MjgwfSx7IngiOjQyMC41LCJ5IjozMDV9XQ==" data-look="classic" marker-end="url(#my-svg_flowchart-v2-pointEnd)"/><path d="M420.5,383L420.5,387.167C420.5,391.333,420.5,399.667,420.5,407.333C420.5,415,420.5,422,420.5,425.5L420.5,429" id="my-svg-L_CreateLanguage_Dashboard_0" class="edge-thickness-normal edge-pattern-solid edge-thickness-normal edge-pattern-solid flowchart-link" style=";" data-edge="true" data-et="edge" data-id="L_CreateLanguage_Dashboard_0" data-points="W3sieCI6NDIwLjUsInkiOjM4M30seyJ4Ijo0MjAuNSwieSI6NDA4fSx7IngiOjQyMC41LCJ5Ijo0MzN9XQ==" data-look="classic" marker-end="url(#my-svg_flowchart-v2-pointEnd)"/><path d="M463.337,487L469.947,491.167C476.558,495.333,489.779,503.667,496.389,511.333C503,519,503,526,503,529.5L503,533" id="my-svg-L_Dashboard_UploadMedia_0" class="edge-thickness-normal edge-pattern-solid edge-thickness-normal edge-pattern-solid flowchart-link" style=";" data-edge="true" data-et="edge" data-id="L_Dashboard_UploadMedia_0" data-points="W3sieCI6NDYzLjMzNjUzODQ2MTUzODQ1LCJ5Ijo0ODd9LHsieCI6NTAzLCJ5Ijo1MTJ9LHsieCI6NTAzLCJ5Ijo1Mzd9XQ==" data-look="classic" marker-end="url(#my-svg_flowchart-v2-pointEnd)"/><path d="M373,618.4L340.5,626C308,633.6,243,648.8,210.5,659.9C178,671,178,678,178,681.5L178,685" id="my-svg-L_UploadMedia_GenerateVocabulary_0" class="edge-thickness-normal edge-pattern-solid edge-thickness-normal edge-pattern-solid flowchart-link" style=";" data-edge="true" data-et="edge" data-id="L_UploadMedia_GenerateVocabulary_0" data-points="W3sieCI6MzczLCJ5Ijo2MTguNH0seyJ4IjoxNzgsInkiOjY2NH0seyJ4IjoxNzgsInkiOjY4OX1d" data-look="classic" marker-end="url(#my-svg_flowchart-v2-pointEnd)"/><path d="M178,743L178,747.167C178,751.333,178,759.667,172.149,767.637C166.297,775.607,154.595,783.213,148.744,787.017L142.892,790.82" id="my-svg-L_GenerateVocabulary_ViewVocabulary_0" class="edge-thickness-normal edge-pattern-solid edge-thickness-normal edge-pattern-solid flowchart-link" style=";" data-edge="true" data-et="edge" data-id="L_GenerateVocabulary_ViewVocabulary_0" data-points="W3sieCI6MTc4LCJ5Ijo3NDN9LHsieCI6MTc4LCJ5Ijo3Njh9LHsieCI6MTM5LjUzODQ2MTUzODQ2MTU1LCJ5Ijo3OTN9XQ==" data-look="classic" marker-end="url(#my-svg_flowchart-v2-pointEnd)"/><path d="M510.5,478.909L536.75,484.424C563,489.939,615.5,500.97,641.75,519.152C668,537.333,668,562.667,668,588C668,613.333,668,638.667,668,660C668,681.333,668,698.667,668,716C668,733.333,668,750.667,661.953,763.145C655.907,775.622,643.814,783.245,637.767,787.056L631.72,790.867" id="my-svg-L_Dashboard_Chat_0" class="edge-thickness-normal edge-pattern-solid edge-thickness-normal edge-pattern-solid flowchart-link" style=";" data-edge="true" data-et="edge" data-id="L_Dashboard_Chat_0" data-points="W3sieCI6NTEwLjUsInkiOjQ3OC45MDkwOTA5MDkwOTA5M30seyJ4Ijo2NjgsInkiOjUxMn0seyJ4Ijo2NjgsInkiOjU4OH0seyJ4Ijo2NjgsInkiOjY2NH0seyJ4Ijo2NjgsInkiOjcxNn0seyJ4Ijo2NjgsInkiOjc2OH0seyJ4Ijo2MjguMzM2NTM4NDYxNTM4NSwieSI6NzkzfV0=" data-look="classic" marker-end="url(#my-svg_flowchart-v2-pointEnd)"/><path d="M503,639L503,643.167C503,647.333,503,655.667,503,663.333C503,671,503,678,503,681.5L503,685" id="my-svg-L_UploadMedia_CreateChat_0" class="edge-thickness-normal edge-pattern-solid edge-thickness-normal edge-pattern-solid flowchart-link" style=";" data-edge="true" data-et="edge" data-id="L_UploadMedia_CreateChat_0" data-points="W3sieCI6NTAzLCJ5Ijo2Mzl9LHsieCI6NTAzLCJ5Ijo2NjR9LHsieCI6NTAzLCJ5Ijo2ODl9XQ==" data-look="classic" marker-end="url(#my-svg_flowchart-v2-pointEnd)"/><path d="M326.533,472.14L275.111,478.783C223.689,485.427,120.844,498.713,69.422,518.023C18,537.333,18,562.667,18,588C18,613.333,18,638.667,18,660C18,681.333,18,698.667,18,716C18,733.333,18,750.667,23.851,763.137C29.703,775.607,41.405,783.213,47.256,787.017L53.108,790.82" id="my-svg-L_Dashboard_ViewVocabulary_0" class="edge-thickness-normal edge-pattern-solid edge-thickness-normal edge-pattern-solid flowchart-link" style=";" data-edge="true" data-et="edge" data-id="L_Dashboard_ViewVocabulary_0" data-points="W3sieCI6MzMwLjUsInkiOjQ3MS42MjczMjkxOTI1NDY2fSx7IngiOjE4LCJ5Ijo1MTJ9LHsieCI6MTgsInkiOjU4OH0seyJ4IjoxOCwieSI6NjY0fSx7IngiOjE4LCJ5Ijo3MTZ9LHsieCI6MTgsInkiOjc2OH0seyJ4Ijo1Ni40NjE1Mzg0NjE1Mzg0NiwieSI6NzkzfV0=" data-look="classic" marker-start="url(#my-svg_flowchart-v2-pointStart)" marker-end="url(#my-svg_flowchart-v2-pointEnd)"/><path d="M503,743L503,747.167C503,751.333,503,759.667,509.047,767.645C515.093,775.622,527.186,783.245,533.233,787.056L539.28,790.867" id="my-svg-L_CreateChat_Chat_0" class="edge-thickness-normal edge-pattern-solid edge-thickness-normal edge-pattern-solid flowchart-link" style=";" data-edge="true" data-et="edge" data-id="L_CreateChat_Chat_0" data-points="W3sieCI6NTAzLCJ5Ijo3NDN9LHsieCI6NTAzLCJ5Ijo3Njh9LHsieCI6NTQyLjY2MzQ2MTUzODQ2MTUsInkiOjc5M31d" data-look="classic" marker-end="url(#my-svg_flowchart-v2-pointEnd)"/><path d="M585.5,847L585.5,851.167C585.5,855.333,585.5,863.667,579.453,871.645C573.407,879.622,561.314,887.245,555.267,891.056L549.22,894.867" id="my-svg-L_Chat_UpdateProgress_0" class="edge-thickness-normal edge-pattern-solid edge-thickness-normal edge-pattern-solid flowchart-link" style=";" data-edge="true" data-et="edge" data-id="L_Chat_UpdateProgress_0" data-points="W3sieCI6NTg1LjUsInkiOjg0N30seyJ4Ijo1ODUuNSwieSI6ODcyfSx7IngiOjU0NS44MzY1Mzg0NjE1Mzg1LCJ5Ijo4OTd9XQ==" data-look="classic" marker-end="url(#my-svg_flowchart-v2-pointEnd)"/><path d="M417.327,897L404.106,892.833C390.885,888.667,364.442,880.333,351.221,867.5C338,854.667,338,837.333,338,820C338,802.667,338,785.333,338,768C338,750.667,338,733.333,338,716C338,698.667,338,681.333,338,660C338,638.667,338,613.333,338,588C338,562.667,338,537.333,344.047,520.855C350.093,504.378,362.186,496.755,368.233,492.944L374.28,489.133" id="my-svg-L_UpdateProgress_Dashboard_0" class="edge-thickness-normal edge-pattern-solid edge-thickness-normal edge-pattern-solid flowchart-link" style=";" data-edge="true" data-et="edge" data-id="L_UpdateProgress_Dashboard_0" data-points="W3sieCI6NDE3LjMyNjkyMzA3NjkyMzEsInkiOjg5N30seyJ4IjozMzgsInkiOjg3Mn0seyJ4IjozMzgsInkiOjgyMH0seyJ4IjozMzgsInkiOjc2OH0seyJ4IjozMzgsInkiOjcxNn0seyJ4IjozMzgsInkiOjY2NH0seyJ4IjozMzgsInkiOjU4OH0seyJ4IjozMzgsInkiOjUxMn0seyJ4IjozNzcuNjYzNDYxNTM4NDYxNTUsInkiOjQ4N31d" data-look="classic" marker-end="url(#my-svg_flowchart-v2-pointEnd)"/></g><g class="edgeLabels"><g class="edgeLabel"><g class="label" data-id="L_Start_Register_0" transform="translate(0, 0)"><foreignObject width="0" height="0"><div xmlns="http://www.w3.org/1999/xhtml" class="labelBkg" style="display: table-cell; white-space: nowrap; line-height: 1.5; max-width: 200px; text-align: center;"><span class="edgeLabel"></span></div></foreignObject></g></g><g class="edgeLabel"><g class="label" data-id="L_Register_Login_0" transform="translate(0, 0)"><foreignObject width="0" height="0"><div xmlns="http://www.w3.org/1999/xhtml" class="labelBkg" style="display: table-cell; white-space: nowrap; line-height: 1.5; max-width: 200px; text-align: center;"><span class="edgeLabel"></span></div></foreignObject></g></g><g class="edgeLabel"><g class="label" data-id="L_Login_CreateLanguage_0" transform="translate(0, 0)"><foreignObject width="0" height="0"><div xmlns="http://www.w3.org/1999/xhtml" class="labelBkg" style="display: table-cell; white-space: nowrap; line-height: 1.5; max-width: 200px; text-align: center;"><span class="edgeLabel"></span></div></foreignObject></g></g><g class="edgeLabel"><g class="label" data-id="L_CreateLanguage_Dashboard_0" transform="translate(0, 0)"><foreignObject width="0" height="0"><div xmlns="http://www.w3.org/1999/xhtml" class="labelBkg" style="display: table-cell; white-space: nowrap; line-height: 1.5; max-width: 200px; text-align: center;"><span class="edgeLabel"></span></div></foreignObject></g></g><g class="edgeLabel"><g class="label" data-id="L_Dashboard_UploadMedia_0" transform="translate(0, 0)"><foreignObject width="0" height="0"><div xmlns="http://www.w3.org/1999/xhtml" class="labelBkg" style="display: table-cell; white-space: nowrap; line-height: 1.5; max-width: 200px; text-align: center;"><span class="edgeLabel"></span></div></foreignObject></g></g><g class="edgeLabel"><g class="label" data-id="L_UploadMedia_GenerateVocabulary_0" transform="translate(0, 0)"><foreignObject width="0" height="0"><div xmlns="http://www.w3.org/1999/xhtml" class="labelBkg" style="display: table-cell; white-space: nowrap; line-height: 1.5; max-width: 200px; text-align: center;"><span class="edgeLabel"></span></div></foreignObject></g></g><g class="edgeLabel"><g class="label" data-id="L_GenerateVocabulary_ViewVocabulary_0" transform="translate(0, 0)"><foreignObject width="0" height="0"><div xmlns="http://www.w3.org/1999/xhtml" class="labelBkg" style="display: table-cell; white-space: nowrap; line-height: 1.5; max-width: 200px; text-align: center;"><span class="edgeLabel"></span></div></foreignObject></g></g><g class="edgeLabel"><g class="label" data-id="L_Dashboard_Chat_0" transform="translate(0, 0)"><foreignObject width="0" height="0"><div xmlns="http://www.w3.org/1999/xhtml" class="labelBkg" style="display: table-cell; white-space: nowrap; line-height: 1.5; max-width: 200px; text-align: center;"><span class="edgeLabel"></span></div></foreignObject></g></g><g class="edgeLabel"><g class="label" data-id="L_UploadMedia_CreateChat_0" transform="translate(0, 0)"><foreignObject width="0" height="0"><div xmlns="http://www.w3.org/1999/xhtml" class="labelBkg" style="display: table-cell; white-space: nowrap; line-height: 1.5; max-width: 200px; text-align: center;"><span class="edgeLabel"></span></div></foreignObject></g></g><g class="edgeLabel"><g class="label" data-id="L_Dashboard_ViewVocabulary_0" transform="translate(0, 0)"><foreignObject width="0" height="0"><div xmlns="http://www.w3.org/1999/xhtml" class="labelBkg" style="display: table-cell; white-space: nowrap; line-height: 1.5; max-width: 200px; text-align: center;"><span class="edgeLabel"></span></div></foreignObject></g></g><g class="edgeLabel"><g class="label" data-id="L_CreateChat_Chat_0" transform="translate(0, 0)"><foreignObject width="0" height="0"><div xmlns="http://www.w3.org/1999/xhtml" class="labelBkg" style="display: table-cell; white-space: nowrap; line-height: 1.5; max-width: 200px; text-align: center;"><span class="edgeLabel"></span></div></foreignObject></g></g><g class="edgeLabel"><g class="label" data-id="L_Chat_UpdateProgress_0" transform="translate(0, 0)"><foreignObject width="0" height="0"><div xmlns="http://www.w3.org/1999/xhtml" class="labelBkg" style="display: table-cell; white-space: nowrap; line-height: 1.5; max-width: 200px; text-align: center;"><span class="edgeLabel"></span></div></foreignObject></g></g><g class="edgeLabel"><g class="label" data-id="L_UpdateProgress_Dashboard_0" transform="translate(0, 0)"><foreignObject width="0" height="0"><div xmlns="http://www.w3.org/1999/xhtml" class="labelBkg" style="display: table-cell; white-space: nowrap; line-height: 1.5; max-width: 200px; text-align: center;"><span class="edgeLabel"></span></div></foreignObject></g></g></g><g class="nodes"><g class="node default" id="my-svg-flowchart-Start-0" data-look="classic" transform="translate(420.5, 27.5)"><g class="basic label-container outer-path"><path d="M-12.875 -19.5 C-5.476077763045351 -19.5, 1.9228444739092971 -19.5, 12.875 -19.5 C12.875 -19.5, 12.874999999999998 -19.5, 12.874999999999998 -19.5 C13.295977969136862 -19.486500055913687, 13.716955938273726 -19.47300011182738, 14.1243692896239 -19.45993515863156 C14.380502105597484 -19.435226333919367, 14.636634921571067 -19.410517509207175, 15.368604652847864 -19.3399052695533 C15.694579140395222 -19.28720424237655, 16.02055362794258 -19.234503215199798, 16.60259325967676 -19.140403561325776 C16.928369968050387 -19.06604715353119, 17.254146676424018 -18.99169074573661, 17.82126438623539 -18.862249829261074 C18.25894704600384 -18.73234791328496, 18.69662970577229 -18.602445997308852, 19.019610251460602 -18.50658706670804 C19.462200764334668 -18.34370966670853, 19.904791277208734 -18.18083226670902, 20.192706595147794 -18.074876768247425 C20.510237478853785 -17.934315265249783, 20.827768362559773 -17.79375376225214, 21.33573291279238 -17.568892924097174 C21.629820145584073 -17.41546780312161, 21.92390737837577 -17.262042682146046, 22.443992264076783 -16.990714730406097 C22.6715825743601 -16.85274814684323, 22.89917288464342 -16.71478156328036, 23.512930573605697 -16.342718045390892 C23.822373545404137 -16.126864023834653, 24.131816517202576 -15.911010002278411, 24.538155344578712 -15.627565626425154 C24.829047522452754 -15.395586855536557, 25.1199397003268 -15.16360808464796, 25.51545370850187 -14.848196188198123 C25.769795455840224 -14.617209742779298, 26.02413720317858 -14.386223297360473, 26.440809736767985 -14.007812326905688 C26.696490397450358 -13.743801052978501, 26.95217105813273 -13.479789779051314, 27.310420942968648 -13.10986736009568 C27.54301926582681 -12.836644134846978, 27.77561758868497 -12.563420909598275, 28.120713908126582 -12.158051136245305 C28.404560986601133 -11.777721910090225, 28.68840806507568 -11.397392683935145, 28.868358964640635 -11.156274872382312 C29.034040837104445 -10.901743024465702, 29.199722709568256 -10.647211176549094, 29.550283878604247 -10.108655082055241 C29.680816418900477 -9.876881338906287, 29.811348959196707 -9.645107595757333, 30.1636864742735 -9.019496659696287 C30.367305992187692 -8.596676373987725, 30.570925510101883 -8.173856088279162, 30.70604614880834 -7.893275190886684 C30.890697648002824 -7.437182417882438, 31.075349147197308 -6.981089644878191, 31.175134229970325 -6.734618561215508 C31.308260012273724 -6.333664915630607, 31.441385794577123 -5.932711270045706, 31.56902313421488 -5.548287939305138 C31.67958625509492 -5.126662841029836, 31.790149375974963 -4.705037742754533, 31.88609428754556 -4.339158212148133 C31.956370931822356 -3.978302496760805, 32.02664757609915 -3.617446781373477, 32.125044776581774 -3.1121979531509023 C32.1602458058194 -2.8391857216133554, 32.19544683505702 -2.566173490075809, 32.28489270250937 -1.872449005199798 C32.31250142122618 -1.4424209258288283, 32.34011013994299 -1.0123928464578587, 32.36498121591342 -0.6250057626472757 C32.36498121591342 -0.13610504889276942, 32.36498121591342 0.35279566486173686, 32.36498121591342 0.625005762647271 C32.34573454578042 0.9247881856012755, 32.326487875647416 1.2245706085552799, 32.28489270250937 1.8724490051997846 C32.24336379438651 2.194539015790195, 32.20183488626365 2.5166290263806053, 32.125044776581774 3.1121979531508885 C32.03374371167807 3.5810096249444983, 31.942442646774374 4.049821296738108, 31.88609428754556 4.339158212148129 C31.81696991995316 4.60275938446838, 31.747845552360758 4.8663605567886306, 31.569023134214884 5.548287939305125 C31.436593929593037 5.947143603897776, 31.304164724971187 6.345999268490427, 31.17513422997033 6.734618561215495 C31.01519011183595 7.12968362531657, 30.85524599370157 7.5247486894176445, 30.706046148808344 7.893275190886679 C30.51168152830532 8.29687748409787, 30.317316907802297 8.700479777309063, 30.163686474273504 9.019496659696284 C29.97554608882543 9.353558965339221, 29.78740570337735 9.68762127098216, 29.55028387860425 10.108655082055236 C29.368867201306355 10.38735981558371, 29.187450524008458 10.666064549112185, 28.86835896464064 11.156274872382301 C28.58806072240069 11.531848981288647, 28.307762480160743 11.907423090194992, 28.120713908126582 12.158051136245302 C27.851411619917172 12.474388927710377, 27.58210933170776 12.790726719175455, 27.31042094296866 13.10986736009567 C27.061506335965138 13.366892128096104, 26.812591728961614 13.623916896096539, 26.44080973676799 14.007812326905684 C26.12472165974713 14.294875155223801, 25.808633582726273 14.581937983541918, 25.515453708501887 14.848196188198111 C25.202086856118378 15.098097913931802, 24.888720003734864 15.347999639665494, 24.538155344578715 15.627565626425152 C24.305559524725282 15.789814401444149, 24.07296370487185 15.952063176463145, 23.512930573605708 16.34271804539089 C23.10360531637332 16.59085342178738, 22.694280059140926 16.838988798183866, 22.443992264076787 16.990714730406093 C22.132209227417412 17.153371740924722, 21.820426190758035 17.316028751443355, 21.335732912792388 17.56889292409717 C21.04798070008124 17.696272292798284, 20.760228487370096 17.8236516614994, 20.192706595147804 18.07487676824742 C19.896681154348443 18.183816866890762, 19.60065571354908 18.292756965534107, 19.019610251460616 18.506587066708033 C18.579025988676676 18.63735016322832, 18.138441725892736 18.768113259748606, 17.821264386235413 18.86224982926107 C17.477369296512958 18.940741639365037, 17.133474206790506 19.019233449469, 16.602593259676766 19.140403561325773 C16.328145425207452 19.184774158828027, 16.053697590738143 19.22914475633028, 15.368604652847878 19.3399052695533 C15.118347265588962 19.364047298723623, 14.868089878330046 19.388189327893947, 14.1243692896239 19.45993515863156 C13.657083367099547 19.474920108650043, 13.189797444575195 19.48990505866853, 12.875000000000004 19.5 C12.875000000000002 19.5, 12.875000000000002 19.5, 12.875 19.5 C2.607788609611923 19.5, -7.659422780776154 19.5, -12.874999999999996 19.5 C-13.260366928205208 19.48764203268368, -13.64573385641042 19.47528406536736, -14.124369289623893 19.45993515863156 C-14.446239739852786 19.42888470340383, -14.76811019008168 19.3978342481761, -15.368604652847871 19.3399052695533 C-15.779474468383748 19.273479024120466, -16.190344283919625 19.207052778687633, -16.60259325967676 19.140403561325773 C-17.047064034802354 19.038956007346226, -17.49153480992795 18.937508453366675, -17.821264386235388 18.862249829261074 C-18.17641378654027 18.75684335146783, -18.53156318684515 18.651436873674587, -19.01961025146059 18.506587066708043 C-19.288347180652 18.407689392588665, -19.55708410984341 18.308791718469283, -20.192706595147797 18.074876768247425 C-20.568435765261757 17.908552610247803, -20.944164935375717 17.742228452248177, -21.33573291279238 17.568892924097174 C-21.746157903471406 17.354774469349678, -22.156582894150432 17.140656014602186, -22.44399226407678 16.990714730406097 C-22.792119235576834 16.779678114461596, -23.140246207076885 16.5686414985171, -23.512930573605686 16.3427180453909 C-23.879573936834575 16.086963506937813, -24.246217300063467 15.831208968484729, -24.538155344578712 15.627565626425156 C-24.734112021481092 15.471295391221679, -24.930068698383476 15.315025156018203, -25.51545370850187 14.848196188198125 C-25.864932776772207 14.530808545104447, -26.214411845042545 14.21342090201077, -26.440809736767974 14.007812326905697 C-26.62910955758423 13.813377302210114, -26.817409378400484 13.618942277514533, -27.310420942968655 13.109867360095677 C-27.620579538251263 12.745537425552692, -27.930738133533872 12.38120749100971, -28.12071390812658 12.158051136245307 C-28.31464677843209 11.898198757683865, -28.5085796487376 11.638346379122424, -28.868358964640635 11.156274872382316 C-29.011241012569982 10.936769677560774, -29.15412306049933 10.71726448273923, -29.550283878604244 10.108655082055249 C-29.739043554216643 9.773493164015626, -29.927803229829046 9.438331245976004, -30.1636864742735 9.019496659696289 C-30.325209279805712 8.684091097974262, -30.486732085337923 8.348685536252233, -30.70604614880834 7.893275190886686 C-30.86645570839411 7.49706047740198, -31.026865267979883 7.100845763917274, -31.175134229970325 6.73461856121551 C-31.268902828442172 6.452202482615583, -31.362671426914016 6.169786404015657, -31.56902313421488 5.5482879393051325 C-31.672179739186163 5.154907096194231, -31.775336344157445 4.761526253083328, -31.886094287545557 4.339158212148136 C-31.97748563837952 3.8698829411845757, -32.068876989213486 3.4006076702210155, -32.125044776581774 3.112197953150904 C-32.1813949210125 2.6751573605408545, -32.23774506544322 2.238116767930805, -32.28489270250937 1.872449005199809 C-32.31104898701514 1.4650437610495197, -32.337205271520915 1.0576385168992304, -32.36498121591342 0.6250057626472781 C-32.36498121591342 0.1393932419495998, -32.36498121591342 -0.34621927874807856, -32.36498121591342 -0.6250057626472687 C-32.33460727776756 -1.0981043666705268, -32.30423333962171 -1.571202970693785, -32.28489270250937 -1.8724490051997822 C-32.22982594568952 -2.2995358969334037, -32.17475918886968 -2.726622788667025, -32.125044776581774 -3.112197953150895 C-32.030901763778516 -3.5956024267628455, -31.93675875097525 -4.079006900374796, -31.88609428754556 -4.339158212148126 C-31.81834657035011 -4.597509619860747, -31.75059885315466 -4.855861027573369, -31.569023134214884 -5.548287939305123 C-31.470060144571235 -5.8463486965006775, -31.371097154927586 -6.144409453696233, -31.175134229970332 -6.734618561215485 C-31.05056184871312 -7.04231475136395, -30.925989467455906 -7.350010941512414, -30.706046148808344 -7.893275190886676 C-30.59298450830473 -8.128050106523999, -30.47992286780112 -8.362825022161319, -30.163686474273504 -9.019496659696282 C-30.006118439360154 -9.299274661178623, -29.848550404446804 -9.579052662660963, -29.550283878604247 -10.108655082055243 C-29.380173621739655 -10.369990117599169, -29.21006336487506 -10.631325153143097, -28.86835896464064 -11.156274872382308 C-28.575296273068282 -11.548952180528826, -28.282233581495927 -11.941629488675341, -28.120713908126586 -12.158051136245302 C-27.832043740131137 -12.497139541370636, -27.54337357213569 -12.836227946495972, -27.310420942968662 -13.10986736009567 C-27.12974686229959 -13.296428182004377, -26.94907278163052 -13.482989003913083, -26.440809736767996 -14.007812326905677 C-26.106226099986326 -14.311672333232869, -25.771642463204653 -14.61553233956006, -25.515453708501887 -14.848196188198107 C-25.146456047151535 -15.142462003684855, -24.777458385801182 -15.436727819171605, -24.53815534457872 -15.627565626425149 C-24.28269503500688 -15.805763679683896, -24.027234725435044 -15.983961732942644, -23.51293057360571 -16.342718045390885 C-23.27629829752021 -16.486165921759525, -23.03966602143471 -16.629613798128165, -22.44399226407679 -16.99071473040609 C-22.022489857859277 -17.21061226574459, -21.600987451641764 -17.43050980108309, -21.335732912792388 -17.56889292409717 C-20.9038217648205 -17.760087177115338, -20.471910616848607 -17.95128143013351, -20.192706595147804 -18.07487676824742 C-19.78714775330169 -18.224126170991628, -19.381588911455573 -18.37337557373584, -19.01961025146062 -18.506587066708033 C-18.57597519936386 -18.638255621482443, -18.132340147267097 -18.769924176256854, -17.821264386235413 -18.862249829261067 C-17.5130041939162 -18.93260820657218, -17.204744001596985 -19.002966583883293, -16.602593259676766 -19.140403561325773 C-16.11660481714695 -19.218974403817334, -15.630616374617137 -19.297545246308893, -15.36860465284788 -19.3399052695533 C-14.914161870346334 -19.383744818233815, -14.459719087844787 -19.42758436691433, -14.124369289623903 -19.45993515863156 C-13.805674662966583 -19.470155075007, -13.48698003630926 -19.48037499138244, -12.875000000000005 -19.5 C-12.875000000000004 -19.5, -12.875000000000002 -19.5, -12.875 -19.5" stroke="none" stroke-width="0" fill="#ECECFF" style=""/><path d="M-12.875 -19.5 C-7.439489221286602 -19.5, -2.003978442573205 -19.5, 12.875 -19.5 M-12.875 -19.5 C-7.454908157469677 -19.5, -2.034816314939354 -19.5, 12.875 -19.5 M12.875 -19.5 C12.875 -19.5, 12.874999999999998 -19.5, 12.874999999999998 -19.5 M12.875 -19.5 C12.875 -19.5, 12.874999999999998 -19.5, 12.874999999999998 -19.5 M12.874999999999998 -19.5 C13.3173863355217 -19.485813531272584, 13.7597726710434 -19.47162706254517, 14.1243692896239 -19.45993515863156 M12.874999999999998 -19.5 C13.125474802184703 -19.491967760613562, 13.375949604369408 -19.483935521227128, 14.1243692896239 -19.45993515863156 M14.1243692896239 -19.45993515863156 C14.439278101270128 -19.429556284305303, 14.754186912916357 -19.39917740997905, 15.368604652847864 -19.3399052695533 M14.1243692896239 -19.45993515863156 C14.557388099262635 -19.41816235484702, 14.99040690890137 -19.376389551062484, 15.368604652847864 -19.3399052695533 M15.368604652847864 -19.3399052695533 C15.81067172859546 -19.268435293027803, 16.252738804343057 -19.196965316502308, 16.60259325967676 -19.140403561325776 M15.368604652847864 -19.3399052695533 C15.722285885755353 -19.28272483065574, 16.07596711866284 -19.225544391758184, 16.60259325967676 -19.140403561325776 M16.60259325967676 -19.140403561325776 C17.043909500324567 -19.03967600925552, 17.485225740972375 -18.938948457185266, 17.82126438623539 -18.862249829261074 M16.60259325967676 -19.140403561325776 C17.08534022213944 -19.030219717362, 17.56808718460212 -18.920035873398227, 17.82126438623539 -18.862249829261074 M17.82126438623539 -18.862249829261074 C18.118454869020674 -18.77404525395508, 18.415645351805956 -18.685840678649086, 19.019610251460602 -18.50658706670804 M17.82126438623539 -18.862249829261074 C18.142530706752616 -18.76689967169289, 18.463797027269845 -18.671549514124706, 19.019610251460602 -18.50658706670804 M19.019610251460602 -18.50658706670804 C19.41796416372033 -18.35998914465326, 19.81631807598006 -18.21339122259848, 20.192706595147794 -18.074876768247425 M19.019610251460602 -18.50658706670804 C19.4120795259518 -18.362154745749073, 19.804548800442998 -18.21772242479011, 20.192706595147794 -18.074876768247425 M20.192706595147794 -18.074876768247425 C20.473689377941213 -17.950494025362886, 20.754672160734632 -17.826111282478344, 21.33573291279238 -17.568892924097174 M20.192706595147794 -18.074876768247425 C20.649439625652434 -17.872694604146993, 21.10617265615707 -17.670512440046558, 21.33573291279238 -17.568892924097174 M21.33573291279238 -17.568892924097174 C21.75169834738354 -17.35188402330954, 22.167663781974703 -17.134875122521912, 22.443992264076783 -16.990714730406097 M21.33573291279238 -17.568892924097174 C21.644291329955685 -17.407918195504177, 21.95284974711899 -17.24694346691118, 22.443992264076783 -16.990714730406097 M22.443992264076783 -16.990714730406097 C22.780116746603753 -16.786954093811534, 23.116241229130722 -16.58319345721697, 23.512930573605697 -16.342718045390892 M22.443992264076783 -16.990714730406097 C22.672716559285554 -16.852060718517386, 22.90144085449432 -16.71340670662867, 23.512930573605697 -16.342718045390892 M23.512930573605697 -16.342718045390892 C23.90567578927024 -16.068755984609677, 24.29842100493478 -15.79479392382846, 24.538155344578712 -15.627565626425154 M23.512930573605697 -16.342718045390892 C23.85058326089533 -16.107186147486896, 24.188235948184968 -15.8716542495829, 24.538155344578712 -15.627565626425154 M24.538155344578712 -15.627565626425154 C24.828048950034624 -15.396383190466889, 25.117942555490536 -15.165200754508623, 25.51545370850187 -14.848196188198123 M24.538155344578712 -15.627565626425154 C24.74561820306652 -15.462119517599652, 24.953081061554325 -15.296673408774149, 25.51545370850187 -14.848196188198123 M25.51545370850187 -14.848196188198123 C25.765192690656068 -14.621389852337057, 26.014931672810267 -14.394583516475988, 26.440809736767985 -14.007812326905688 M25.51545370850187 -14.848196188198123 C25.85543789565942 -14.539431544910292, 26.195422082816968 -14.230666901622461, 26.440809736767985 -14.007812326905688 M26.440809736767985 -14.007812326905688 C26.76593993719363 -13.67208870128032, 27.091070137619276 -13.33636507565495, 27.310420942968648 -13.10986736009568 M26.440809736767985 -14.007812326905688 C26.662975595498622 -13.778407837610082, 26.88514145422926 -13.549003348314477, 27.310420942968648 -13.10986736009568 M27.310420942968648 -13.10986736009568 C27.564188166111972 -12.811777940027476, 27.817955389255296 -12.513688519959272, 28.120713908126582 -12.158051136245305 M27.310420942968648 -13.10986736009568 C27.48616847969173 -12.903424303142613, 27.66191601641481 -12.696981246189546, 28.120713908126582 -12.158051136245305 M28.120713908126582 -12.158051136245305 C28.366587007703973 -11.828603582311773, 28.612460107281365 -11.49915602837824, 28.868358964640635 -11.156274872382312 M28.120713908126582 -12.158051136245305 C28.287295673524024 -11.934846746523759, 28.453877438921467 -11.71164235680221, 28.868358964640635 -11.156274872382312 M28.868358964640635 -11.156274872382312 C29.096713532639427 -10.8054609341488, 29.32506810063822 -10.454646995915287, 29.550283878604247 -10.108655082055241 M28.868358964640635 -11.156274872382312 C29.06033250928328 -10.861351955696493, 29.252306053925928 -10.566429039010677, 29.550283878604247 -10.108655082055241 M29.550283878604247 -10.108655082055241 C29.773525031695055 -9.71226780912449, 29.996766184785866 -9.315880536193742, 30.1636864742735 -9.019496659696287 M29.550283878604247 -10.108655082055241 C29.759524174957317 -9.737127748002829, 29.968764471310383 -9.365600413950416, 30.1636864742735 -9.019496659696287 M30.1636864742735 -9.019496659696287 C30.335967888655198 -8.661750616500946, 30.508249303036898 -8.304004573305605, 30.70604614880834 -7.893275190886684 M30.1636864742735 -9.019496659696287 C30.377893996428323 -8.574690156635052, 30.59210151858315 -8.129883653573817, 30.70604614880834 -7.893275190886684 M30.70604614880834 -7.893275190886684 C30.82632811073595 -7.596176419431956, 30.94661007266356 -7.299077647977227, 31.175134229970325 -6.734618561215508 M30.70604614880834 -7.893275190886684 C30.82696809779884 -7.594595639013315, 30.947890046789336 -7.295916087139946, 31.175134229970325 -6.734618561215508 M31.175134229970325 -6.734618561215508 C31.290564453667333 -6.3869611187486734, 31.405994677364344 -6.039303676281838, 31.56902313421488 -5.548287939305138 M31.175134229970325 -6.734618561215508 C31.270897784157665 -6.446193993853546, 31.366661338345004 -6.157769426491583, 31.56902313421488 -5.548287939305138 M31.56902313421488 -5.548287939305138 C31.676197804984575 -5.139584469864154, 31.78337247575427 -4.730881000423169, 31.88609428754556 -4.339158212148133 M31.56902313421488 -5.548287939305138 C31.675653367671202 -5.141660645300665, 31.782283601127528 -4.735033351296193, 31.88609428754556 -4.339158212148133 M31.88609428754556 -4.339158212148133 C31.963481591671208 -3.941790761275449, 32.040868895796855 -3.544423310402765, 32.125044776581774 -3.1121979531509023 M31.88609428754556 -4.339158212148133 C31.97154246881932 -3.9003998607868886, 32.05699065009308 -3.461641509425644, 32.125044776581774 -3.1121979531509023 M32.125044776581774 -3.1121979531509023 C32.1756596793139 -2.7196387626035676, 32.22627458204604 -2.327079572056233, 32.28489270250937 -1.872449005199798 M32.125044776581774 -3.1121979531509023 C32.1689978470946 -2.771306617768893, 32.21295091760744 -2.430415282386884, 32.28489270250937 -1.872449005199798 M32.28489270250937 -1.872449005199798 C32.31396236880363 -1.4196654880544104, 32.343032035097885 -0.9668819709090227, 32.36498121591342 -0.6250057626472757 M32.28489270250937 -1.872449005199798 C32.312612756477066 -1.4406867894280628, 32.340332810444764 -1.0089245736563277, 32.36498121591342 -0.6250057626472757 M32.36498121591342 -0.6250057626472757 C32.36498121591342 -0.32391401598448755, 32.36498121591342 -0.022822269321699395, 32.36498121591342 0.625005762647271 M32.36498121591342 -0.6250057626472757 C32.36498121591342 -0.32838202609234396, 32.36498121591342 -0.03175828953741222, 32.36498121591342 0.625005762647271 M32.36498121591342 0.625005762647271 C32.33837509544402 1.0394175650320439, 32.31176897497462 1.4538293674168168, 32.28489270250937 1.8724490051997846 M32.36498121591342 0.625005762647271 C32.333983335768 1.1078227669506329, 32.30298545562258 1.5906397712539946, 32.28489270250937 1.8724490051997846 M32.28489270250937 1.8724490051997846 C32.227279120880524 2.319288567224538, 32.16966553925168 2.7661281292492914, 32.125044776581774 3.1121979531508885 M32.28489270250937 1.8724490051997846 C32.236035446282564 2.251376236538361, 32.18717819005576 2.6303034678769373, 32.125044776581774 3.1121979531508885 M32.125044776581774 3.1121979531508885 C32.05626637543416 3.4653605067236453, 31.98748797428655 3.8185230602964015, 31.88609428754556 4.339158212148129 M32.125044776581774 3.1121979531508885 C32.054601597132354 3.473908791452415, 31.984158417682934 3.8356196297539418, 31.88609428754556 4.339158212148129 M31.88609428754556 4.339158212148129 C31.79211918364304 4.697526012396105, 31.698144079740523 5.055893812644082, 31.569023134214884 5.548287939305125 M31.88609428754556 4.339158212148129 C31.821445743698625 4.58569112869264, 31.756797199851686 4.832224045237152, 31.569023134214884 5.548287939305125 M31.569023134214884 5.548287939305125 C31.46337519277247 5.866482706216134, 31.357727251330058 6.184677473127143, 31.17513422997033 6.734618561215495 M31.569023134214884 5.548287939305125 C31.473031664239837 5.837398952706218, 31.377040194264787 6.126509966107311, 31.17513422997033 6.734618561215495 M31.17513422997033 6.734618561215495 C31.002607328866553 7.160763342522541, 30.830080427762773 7.586908123829587, 30.706046148808344 7.893275190886679 M31.17513422997033 6.734618561215495 C31.04567191275149 7.0543929877296545, 30.916209595532653 7.374167414243815, 30.706046148808344 7.893275190886679 M30.706046148808344 7.893275190886679 C30.559547836494694 8.19748207096771, 30.413049524181044 8.501688951048742, 30.163686474273504 9.019496659696284 M30.706046148808344 7.893275190886679 C30.59426451793464 8.125392139139679, 30.482482887060932 8.357509087392678, 30.163686474273504 9.019496659696284 M30.163686474273504 9.019496659696284 C29.931272642350656 9.432170952727768, 29.69885881042781 9.844845245759254, 29.55028387860425 10.108655082055236 M30.163686474273504 9.019496659696284 C29.959399598029112 9.382228694757568, 29.755112721784716 9.744960729818851, 29.55028387860425 10.108655082055236 M29.55028387860425 10.108655082055236 C29.29729351171806 10.497316223018073, 29.044303144831865 10.885977363980908, 28.86835896464064 11.156274872382301 M29.55028387860425 10.108655082055236 C29.29731334290543 10.49728575698885, 29.044342807206608 10.885916431922466, 28.86835896464064 11.156274872382301 M28.86835896464064 11.156274872382301 C28.66299077538737 11.431449536554755, 28.4576225861341 11.706624200727207, 28.120713908126582 12.158051136245302 M28.86835896464064 11.156274872382301 C28.63313724473023 11.471450547922734, 28.397915524819812 11.786626223463166, 28.120713908126582 12.158051136245302 M28.120713908126582 12.158051136245302 C27.885341597359908 12.43453284553573, 27.649969286593233 12.711014554826157, 27.31042094296866 13.10986736009567 M28.120713908126582 12.158051136245302 C27.89268455160481 12.425907393653734, 27.664655195083036 12.693763651062167, 27.31042094296866 13.10986736009567 M27.31042094296866 13.10986736009567 C26.984306253202956 13.446607551792727, 26.658191563437253 13.783347743489783, 26.44080973676799 14.007812326905684 M27.31042094296866 13.10986736009567 C27.040746695094132 13.388328161693629, 26.77107244721961 13.666788963291586, 26.44080973676799 14.007812326905684 M26.44080973676799 14.007812326905684 C26.24576818504027 14.184943903668128, 26.05072663331255 14.362075480430573, 25.515453708501887 14.848196188198111 M26.44080973676799 14.007812326905684 C26.21441970833376 14.213413760777737, 25.988029679899533 14.419015194649791, 25.515453708501887 14.848196188198111 M25.515453708501887 14.848196188198111 C25.310831515051245 15.011376942249745, 25.106209321600602 15.174557696301381, 24.538155344578715 15.627565626425152 M25.515453708501887 14.848196188198111 C25.14486783814546 15.143728558103188, 24.77428196778903 15.439260928008263, 24.538155344578715 15.627565626425152 M24.538155344578715 15.627565626425152 C24.32846343592528 15.773837624485367, 24.118771527271843 15.920109622545581, 23.512930573605708 16.34271804539089 M24.538155344578715 15.627565626425152 C24.256150903671465 15.824279716626558, 23.974146462764217 16.020993806827963, 23.512930573605708 16.34271804539089 M23.512930573605708 16.34271804539089 C23.29003196984715 16.47784048888692, 23.067133366088594 16.61296293238295, 22.443992264076787 16.990714730406093 M23.512930573605708 16.34271804539089 C23.290762013111447 16.477397932369893, 23.068593452617183 16.612077819348894, 22.443992264076787 16.990714730406093 M22.443992264076787 16.990714730406093 C22.19002637090292 17.123208574201982, 21.936060477729058 17.255702417997867, 21.335732912792388 17.56889292409717 M22.443992264076787 16.990714730406093 C22.058850627124333 17.191642875709196, 21.67370899017188 17.3925710210123, 21.335732912792388 17.56889292409717 M21.335732912792388 17.56889292409717 C21.03301012304912 17.702899323164015, 20.730287333305853 17.83690572223086, 20.192706595147804 18.07487676824742 M21.335732912792388 17.56889292409717 C20.996622982670857 17.719006830823304, 20.657513052549326 17.869120737549437, 20.192706595147804 18.07487676824742 M20.192706595147804 18.07487676824742 C19.763061354628235 18.23299018835569, 19.33341611410867 18.391103608463954, 19.019610251460616 18.506587066708033 M20.192706595147804 18.07487676824742 C19.91321763565945 18.177731288906756, 19.6337286761711 18.280585809566087, 19.019610251460616 18.506587066708033 M19.019610251460616 18.506587066708033 C18.752916244211708 18.585740448154098, 18.4862222369628 18.664893829600164, 17.821264386235413 18.86224982926107 M19.019610251460616 18.506587066708033 C18.70205122561909 18.600836918676457, 18.384492199777565 18.69508677064488, 17.821264386235413 18.86224982926107 M17.821264386235413 18.86224982926107 C17.544256781960126 18.925475007293354, 17.26724917768484 18.988700185325637, 16.602593259676766 19.140403561325773 M17.821264386235413 18.86224982926107 C17.469834422898067 18.94246142509799, 17.118404459560722 19.022673020934906, 16.602593259676766 19.140403561325773 M16.602593259676766 19.140403561325773 C16.175487637345064 19.209454686090794, 15.74838201501336 19.278505810855812, 15.368604652847878 19.3399052695533 M16.602593259676766 19.140403561325773 C16.142584155456586 19.214774265872208, 15.682575051236402 19.289144970418647, 15.368604652847878 19.3399052695533 M15.368604652847878 19.3399052695533 C15.049859819377517 19.370654200291437, 14.731114985907157 19.401403131029575, 14.1243692896239 19.45993515863156 M15.368604652847878 19.3399052695533 C14.96449972599647 19.378888785839376, 14.560394799145062 19.41787230212545, 14.1243692896239 19.45993515863156 M14.1243692896239 19.45993515863156 C13.68797418412337 19.473929500273417, 13.25157907862284 19.487923841915276, 12.875000000000004 19.5 M14.1243692896239 19.45993515863156 C13.831178607887308 19.46933721313381, 13.537987926150718 19.47873926763606, 12.875000000000004 19.5 M12.875000000000004 19.5 C12.875000000000004 19.5, 12.875000000000002 19.5, 12.875 19.5 M12.875000000000004 19.5 C12.875000000000002 19.5, 12.875000000000002 19.5, 12.875 19.5 M12.875 19.5 C4.750064258678266 19.5, -3.374871482643467 19.5, -12.874999999999996 19.5 M12.875 19.5 C5.515141823608088 19.5, -1.8447163527838235 19.5, -12.874999999999996 19.5 M-12.874999999999996 19.5 C-13.180481356264082 19.490203807488, -13.485962712528165 19.480407614976, -14.124369289623893 19.45993515863156 M-12.874999999999996 19.5 C-13.138828244960273 19.49153954169465, -13.40265648992055 19.4830790833893, -14.124369289623893 19.45993515863156 M-14.124369289623893 19.45993515863156 C-14.470794560244418 19.42651592941214, -14.817219830864943 19.39309670019272, -15.368604652847871 19.3399052695533 M-14.124369289623893 19.45993515863156 C-14.593187315971441 19.41470884746598, -15.062005342318988 19.3694825363004, -15.368604652847871 19.3399052695533 M-15.368604652847871 19.3399052695533 C-15.860702675001345 19.260346677608684, -16.35280069715482 19.180788085664066, -16.60259325967676 19.140403561325773 M-15.368604652847871 19.3399052695533 C-15.664282274602918 19.292102404682144, -15.959959896357965 19.244299539810992, -16.60259325967676 19.140403561325773 M-16.60259325967676 19.140403561325773 C-16.942784989240426 19.062757019011368, -17.282976718804093 18.985110476696963, -17.821264386235388 18.862249829261074 M-16.60259325967676 19.140403561325773 C-16.892457855542133 19.07424385886276, -17.18232245140751 19.008084156399754, -17.821264386235388 18.862249829261074 M-17.821264386235388 18.862249829261074 C-18.163829263875556 18.76057837173721, -18.506394141515724 18.658906914213343, -19.01961025146059 18.506587066708043 M-17.821264386235388 18.862249829261074 C-18.085770355608812 18.783745845971207, -18.35027632498224 18.70524186268134, -19.01961025146059 18.506587066708043 M-19.01961025146059 18.506587066708043 C-19.382878433544388 18.372901017686942, -19.746146615628184 18.23921496866584, -20.192706595147797 18.074876768247425 M-19.01961025146059 18.506587066708043 C-19.3144157270227 18.398095926549246, -19.60922120258481 18.289604786390445, -20.192706595147797 18.074876768247425 M-20.192706595147797 18.074876768247425 C-20.648617815018845 17.873058395336336, -21.10452903488989 17.67124002242525, -21.33573291279238 17.568892924097174 M-20.192706595147797 18.074876768247425 C-20.643820094077327 17.87518220407781, -21.09493359300686 17.675487639908194, -21.33573291279238 17.568892924097174 M-21.33573291279238 17.568892924097174 C-21.573583012610857 17.444806679372135, -21.811433112429334 17.320720434647093, -22.44399226407678 16.990714730406097 M-21.33573291279238 17.568892924097174 C-21.658457736378985 17.400527590347156, -21.98118255996559 17.232162256597142, -22.44399226407678 16.990714730406097 M-22.44399226407678 16.990714730406097 C-22.822604902564578 16.761197523979963, -23.201217541052376 16.531680317553825, -23.512930573605686 16.3427180453909 M-22.44399226407678 16.990714730406097 C-22.679985682937122 16.84765413304169, -22.915979101797465 16.704593535677283, -23.512930573605686 16.3427180453909 M-23.512930573605686 16.3427180453909 C-23.746484195122477 16.179801149394113, -23.980037816639268 16.016884253397325, -24.538155344578712 15.627565626425156 M-23.512930573605686 16.3427180453909 C-23.821167175137084 16.12770553551002, -24.129403776668482 15.91269302562914, -24.538155344578712 15.627565626425156 M-24.538155344578712 15.627565626425156 C-24.831742749849738 15.393437483410478, -25.125330155120764 15.159309340395803, -25.51545370850187 14.848196188198125 M-24.538155344578712 15.627565626425156 C-24.885842127712436 15.350294669209884, -25.23352891084616 15.07302371199461, -25.51545370850187 14.848196188198125 M-25.51545370850187 14.848196188198125 C-25.742943472139626 14.641596003911628, -25.970433235777378 14.434995819625131, -26.440809736767974 14.007812326905697 M-25.51545370850187 14.848196188198125 C-25.873195956911715 14.523304143533512, -26.23093820532156 14.198412098868896, -26.440809736767974 14.007812326905697 M-26.440809736767974 14.007812326905697 C-26.645045352093693 13.796922286026032, -26.84928096741941 13.586032245146368, -27.310420942968655 13.109867360095677 M-26.440809736767974 14.007812326905697 C-26.682486571339503 13.758261153173466, -26.92416340591103 13.508709979441234, -27.310420942968655 13.109867360095677 M-27.310420942968655 13.109867360095677 C-27.580193323313836 12.792977371658926, -27.849965703659013 12.476087383222177, -28.12071390812658 12.158051136245307 M-27.310420942968655 13.109867360095677 C-27.632923323939497 12.731037712501989, -27.95542570491034 12.3522080649083, -28.12071390812658 12.158051136245307 M-28.12071390812658 12.158051136245307 C-28.381527906067088 11.808584139649039, -28.6423419040076 11.45911714305277, -28.868358964640635 11.156274872382316 M-28.12071390812658 12.158051136245307 C-28.415984830704605 11.762414999725177, -28.711255753282636 11.366778863205047, -28.868358964640635 11.156274872382316 M-28.868358964640635 11.156274872382316 C-29.035190169113527 10.899977341860897, -29.20202137358642 10.643679811339478, -29.550283878604244 10.108655082055249 M-28.868358964640635 11.156274872382316 C-29.083541572979723 10.825696601352526, -29.298724181318814 10.495118330322736, -29.550283878604244 10.108655082055249 M-29.550283878604244 10.108655082055249 C-29.69008553947518 9.860423076725667, -29.829887200346114 9.612191071396085, -30.1636864742735 9.019496659696289 M-29.550283878604244 10.108655082055249 C-29.700597430251655 9.84175815020767, -29.850910981899066 9.574861218360091, -30.1636864742735 9.019496659696289 M-30.1636864742735 9.019496659696289 C-30.280678433941162 8.776560352219459, -30.397670393608827 8.533624044742629, -30.70604614880834 7.893275190886686 M-30.1636864742735 9.019496659696289 C-30.366580930562744 8.59818197996576, -30.56947538685199 8.176867300235234, -30.70604614880834 7.893275190886686 M-30.70604614880834 7.893275190886686 C-30.841143657505828 7.559581732471246, -30.97624116620332 7.225888274055805, -31.175134229970325 6.73461856121551 M-30.70604614880834 7.893275190886686 C-30.843056654170272 7.554856593724794, -30.980067159532208 7.216437996562902, -31.175134229970325 6.73461856121551 M-31.175134229970325 6.73461856121551 C-31.26771532622109 6.455779050102699, -31.36029642247185 6.176939538989888, -31.56902313421488 5.5482879393051325 M-31.175134229970325 6.73461856121551 C-31.29109256197393 6.385370540671836, -31.407050893977537 6.0361225201281625, -31.56902313421488 5.5482879393051325 M-31.56902313421488 5.5482879393051325 C-31.63742547151814 5.287440181407286, -31.7058278088214 5.026592423509438, -31.886094287545557 4.339158212148136 M-31.56902313421488 5.5482879393051325 C-31.656891365871108 5.213208289667446, -31.74475959752733 4.87812864002976, -31.886094287545557 4.339158212148136 M-31.886094287545557 4.339158212148136 C-31.95150447820196 4.003290707576192, -32.01691466885836 3.667423203004248, -32.125044776581774 3.112197953150904 M-31.886094287545557 4.339158212148136 C-31.940774313151397 4.058387837289647, -31.995454338757238 3.777617462431158, -32.125044776581774 3.112197953150904 M-32.125044776581774 3.112197953150904 C-32.17342147491524 2.7369978339362078, -32.22179817324869 2.361797714721511, -32.28489270250937 1.872449005199809 M-32.125044776581774 3.112197953150904 C-32.16351126087345 2.8138594970511557, -32.20197774516513 2.5155210409514073, -32.28489270250937 1.872449005199809 M-32.28489270250937 1.872449005199809 C-32.30344301956232 1.5835128435536527, -32.32199333661527 1.2945766819074964, -32.36498121591342 0.6250057626472781 M-32.28489270250937 1.872449005199809 C-32.304255135898 1.5708634760969, -32.32361756928664 1.269277946993991, -32.36498121591342 0.6250057626472781 M-32.36498121591342 0.6250057626472781 C-32.36498121591342 0.2034922001162765, -32.36498121591342 -0.21802136241472514, -32.36498121591342 -0.6250057626472687 M-32.36498121591342 0.6250057626472781 C-32.36498121591342 0.2337652377256545, -32.36498121591342 -0.15747528719596915, -32.36498121591342 -0.6250057626472687 M-32.36498121591342 -0.6250057626472687 C-32.34122378425443 -0.9950469373896138, -32.317466352595446 -1.365088112131959, -32.28489270250937 -1.8724490051997822 M-32.36498121591342 -0.6250057626472687 C-32.34416937616244 -0.9491669657833589, -32.32335753641147 -1.273328168919449, -32.28489270250937 -1.8724490051997822 M-32.28489270250937 -1.8724490051997822 C-32.228109286865006 -2.3128499637837403, -32.17132587122064 -2.7532509223676986, -32.125044776581774 -3.112197953150895 M-32.28489270250937 -1.8724490051997822 C-32.252703264026685 -2.122103933547868, -32.220513825544 -2.3717588618959535, -32.125044776581774 -3.112197953150895 M-32.125044776581774 -3.112197953150895 C-32.07513790151562 -3.368459208793841, -32.025231026449454 -3.6247204644367867, -31.88609428754556 -4.339158212148126 M-32.125044776581774 -3.112197953150895 C-32.03707091776652 -3.563925124885595, -31.949097058951264 -4.015652296620295, -31.88609428754556 -4.339158212148126 M-31.88609428754556 -4.339158212148126 C-31.80862838984259 -4.634569254021994, -31.73116249213962 -4.929980295895862, -31.569023134214884 -5.548287939305123 M-31.88609428754556 -4.339158212148126 C-31.78933815187977 -4.708131291816244, -31.69258201621398 -5.077104371484363, -31.569023134214884 -5.548287939305123 M-31.569023134214884 -5.548287939305123 C-31.466574462273847 -5.856847016212353, -31.364125790332814 -6.165406093119585, -31.175134229970332 -6.734618561215485 M-31.569023134214884 -5.548287939305123 C-31.4342357020731 -5.9542462094552935, -31.299448269931315 -6.360204479605463, -31.175134229970332 -6.734618561215485 M-31.175134229970332 -6.734618561215485 C-30.997353034618566 -7.173741550899936, -30.819571839266796 -7.612864540584386, -30.706046148808344 -7.893275190886676 M-31.175134229970332 -6.734618561215485 C-31.03008616154286 -7.092890094544962, -30.885038093115394 -7.4511616278744395, -30.706046148808344 -7.893275190886676 M-30.706046148808344 -7.893275190886676 C-30.5665513753625 -8.182939072656984, -30.427056601916657 -8.47260295442729, -30.163686474273504 -9.019496659696282 M-30.706046148808344 -7.893275190886676 C-30.59699323358357 -8.119725902709503, -30.487940318358802 -8.34617661453233, -30.163686474273504 -9.019496659696282 M-30.163686474273504 -9.019496659696282 C-29.960114680645578 -9.380958993162064, -29.75654288701765 -9.742421326627847, -29.550283878604247 -10.108655082055243 M-30.163686474273504 -9.019496659696282 C-29.994391612245597 -9.320096830190531, -29.82509675021769 -9.62069700068478, -29.550283878604247 -10.108655082055243 M-29.550283878604247 -10.108655082055243 C-29.392898186045294 -10.350441769801765, -29.23551249348634 -10.592228457548286, -28.86835896464064 -11.156274872382308 M-29.550283878604247 -10.108655082055243 C-29.325138023813757 -10.454539575140663, -29.09999216902327 -10.800424068226082, -28.86835896464064 -11.156274872382308 M-28.86835896464064 -11.156274872382308 C-28.585728126663636 -11.534974447072464, -28.303097288686633 -11.91367402176262, -28.120713908126586 -12.158051136245302 M-28.86835896464064 -11.156274872382308 C-28.66992119717848 -11.42216340272909, -28.471483429716315 -11.688051933075874, -28.120713908126586 -12.158051136245302 M-28.120713908126586 -12.158051136245302 C-27.869759310125566 -12.45283668677845, -27.61880471212455 -12.7476222373116, -27.310420942968662 -13.10986736009567 M-28.120713908126586 -12.158051136245302 C-27.841058114615148 -12.486550744169278, -27.561402321103714 -12.815050352093255, -27.310420942968662 -13.10986736009567 M-27.310420942968662 -13.10986736009567 C-27.054331754185498 -13.374300472827702, -26.798242565402337 -13.638733585559734, -26.440809736767996 -14.007812326905677 M-27.310420942968662 -13.10986736009567 C-27.031426195138337 -13.397952343125269, -26.75243144730801 -13.68603732615487, -26.440809736767996 -14.007812326905677 M-26.440809736767996 -14.007812326905677 C-26.21501434581245 -14.212873726752838, -25.989218954856902 -14.417935126599996, -25.515453708501887 -14.848196188198107 M-26.440809736767996 -14.007812326905677 C-26.189323718488872 -14.23620527475136, -25.937837700209748 -14.464598222597044, -25.515453708501887 -14.848196188198107 M-25.515453708501887 -14.848196188198107 C-25.31418195545852 -15.008705055183905, -25.11291020241515 -15.169213922169703, -24.53815534457872 -15.627565626425149 M-25.515453708501887 -14.848196188198107 C-25.275494147348873 -15.039557552625537, -25.035534586195862 -15.230918917052964, -24.53815534457872 -15.627565626425149 M-24.53815534457872 -15.627565626425149 C-24.289888482039217 -15.800745842433443, -24.041621619499715 -15.973926058441737, -23.51293057360571 -16.342718045390885 M-24.53815534457872 -15.627565626425149 C-24.199880785521504 -15.863531315153816, -23.86160622646429 -16.099497003882483, -23.51293057360571 -16.342718045390885 M-23.51293057360571 -16.342718045390885 C-23.280257074409498 -16.483766087944886, -23.04758357521328 -16.624814130498883, -22.44399226407679 -16.99071473040609 M-23.51293057360571 -16.342718045390885 C-23.28529204297673 -16.480713860410667, -23.057653512347756 -16.61870967543045, -22.44399226407679 -16.99071473040609 M-22.44399226407679 -16.99071473040609 C-22.105946967657935 -17.16707274501946, -21.767901671239077 -17.34343075963283, -21.335732912792388 -17.56889292409717 M-22.44399226407679 -16.99071473040609 C-22.068083439933705 -17.186826123180445, -21.692174615790623 -17.382937515954797, -21.335732912792388 -17.56889292409717 M-21.335732912792388 -17.56889292409717 C-20.964186964132516 -17.733365294049925, -20.59264101547264 -17.89783766400268, -20.192706595147804 -18.07487676824742 M-21.335732912792388 -17.56889292409717 C-21.015551794959418 -17.710627607126426, -20.695370677126448 -17.85236229015568, -20.192706595147804 -18.07487676824742 M-20.192706595147804 -18.07487676824742 C-19.899555579212397 -18.18275905196994, -19.606404563276985 -18.290641335692452, -19.01961025146062 -18.506587066708033 M-20.192706595147804 -18.07487676824742 C-19.955155918315448 -18.16229761321611, -19.717605241483092 -18.249718458184805, -19.01961025146062 -18.506587066708033 M-19.01961025146062 -18.506587066708033 C-18.688538690623425 -18.604847368134426, -18.35746712978623 -18.703107669560822, -17.821264386235413 -18.862249829261067 M-19.01961025146062 -18.506587066708033 C-18.562113800368518 -18.642369611944293, -18.104617349276417 -18.77815215718055, -17.821264386235413 -18.862249829261067 M-17.821264386235413 -18.862249829261067 C-17.50225780653127 -18.93506099936606, -17.183251226827128 -19.007872169471053, -16.602593259676766 -19.140403561325773 M-17.821264386235413 -18.862249829261067 C-17.5721937521308 -18.919098576157662, -17.32312311802619 -18.975947323054257, -16.602593259676766 -19.140403561325773 M-16.602593259676766 -19.140403561325773 C-16.306450850568954 -19.18828156941164, -16.010308441461145 -19.23615957749751, -15.36860465284788 -19.3399052695533 M-16.602593259676766 -19.140403561325773 C-16.259014558309865 -19.19595070127015, -15.915435856942963 -19.25149784121453, -15.36860465284788 -19.3399052695533 M-15.36860465284788 -19.3399052695533 C-15.002792931624986 -19.37519468634671, -14.636981210402093 -19.41048410314012, -14.124369289623903 -19.45993515863156 M-15.36860465284788 -19.3399052695533 C-15.119170727436256 -19.36396786034957, -14.869736802024631 -19.38803045114585, -14.124369289623903 -19.45993515863156 M-14.124369289623903 -19.45993515863156 C-13.826293065336042 -19.469493882974298, -13.528216841048181 -19.479052607317033, -12.875000000000005 -19.5 M-14.124369289623903 -19.45993515863156 C-13.813132635356661 -19.46991591234851, -13.50189598108942 -19.479896666065468, -12.875000000000005 -19.5 M-12.875000000000005 -19.5 C-12.875000000000004 -19.5, -12.875000000000002 -19.5, -12.875 -19.5 M-12.875000000000005 -19.5 C-12.875000000000004 -19.5, -12.875000000000002 -19.5, -12.875 -19.5" stroke="#9370DB" stroke-width="1.3" fill="none" stroke-dasharray="0 0" style=""/></g><g class="label" style="" transform="translate(-20, -12)"><rect/><foreignObject width="40" height="24"><div xmlns="http://www.w3.org/1999/xhtml" style="display: table-cell; white-space: nowrap; line-height: 1.5; max-width: 200px; text-align: center;"><span class="nodeLabel"><p>Start</p></span></div></foreignObject></g></g><g class="node default" id="my-svg-flowchart-Register-1" data-look="classic" transform="translate(420.5, 124)"><rect class="basic label-container" style="" x="-82.5" y="-27" width="165" height="54"/><g class="label" style="" transform="translate(-52.5, -12)"><rect/><foreignObject width="105" height="24"><div xmlns="http://www.w3.org/1999/xhtml" style="display: table-cell; white-space: nowrap; line-height: 1.5; max-width: 200px; text-align: center;"><span class="nodeLabel"><p>Register User</p></span></div></foreignObject></g></g><g class="node default" id="my-svg-flowchart-Login-2" data-look="classic" transform="translate(420.5, 228)"><rect class="basic label-container" style="" x="-50" y="-27" width="100" height="54"/><g class="label" style="" transform="translate(-20, -12)"><rect/><foreignObject width="40" height="24"><div xmlns="http://www.w3.org/1999/xhtml" style="display: table-cell; white-space: nowrap; line-height: 1.5; max-width: 200px; text-align: center;"><span class="nodeLabel"><p>Login</p></span></div></foreignObject></g></g><g class="node default" id="my-svg-flowchart-CreateLanguage-3" data-look="classic" transform="translate(420.5, 344)"><rect class="basic label-container" style="" x="-125" y="-39" width="250" height="78"/><g class="label" style="" transform="translate(-95, -24)"><rect/><foreignObject width="190" height="48"><div xmlns="http://www.w3.org/1999/xhtml" style="display: table-cell; white-space: nowrap; line-height: 1.5; max-width: 200px; text-align: center;"><span class="nodeLabel"><p>Create Learning Language<br />e.g. JA / EN / ...</p></span></div></foreignObject></g></g><g class="node default" id="my-svg-flowchart-Dashboard-4" data-look="classic" transform="translate(420.5, 460)"><rect class="basic label-container" style="" x="-90" y="-27" width="180" height="54"/><g class="label" style="" transform="translate(-60, -12)"><rect/><foreignObject width="120" height="24"><div xmlns="http://www.w3.org/1999/xhtml" style="display: table-cell; white-space: nowrap; line-height: 1.5; max-width: 200px; text-align: center;"><span class="nodeLabel"><p>Select Language</p></span></div></foreignObject></g></g><g class="node default" id="my-svg-flowchart-UploadMedia-5" data-look="classic" transform="translate(503, 588)"><rect class="basic label-container" style="" x="-130" y="-51" width="260" height="102"/><g class="label" style="" transform="translate(-100, -36)"><rect/><foreignObject width="200" height="72"><div xmlns="http://www.w3.org/1999/xhtml" style="display: table; white-space: break-spaces; line-height: 1.5; max-width: 200px; text-align: center; width: 200px;"><span class="nodeLabel"><p>Upload Media<br />e.g. Subtitle / Text / Book</p></span></div></foreignObject></g></g><g class="node default" id="my-svg-flowchart-GenerateVocabulary-6" data-look="classic" transform="translate(178, 716)"><rect class="basic label-container" style="" x="-125" y="-27" width="250" height="54"/><g class="label" style="" transform="translate(-95, -12)"><rect/><foreignObject width="190" height="24"><div xmlns="http://www.w3.org/1999/xhtml" style="display: table-cell; white-space: nowrap; line-height: 1.5; max-width: 200px; text-align: center;"><span class="nodeLabel"><p>Generate Vocabulary List</p></span></div></foreignObject></g></g><g class="node default" id="my-svg-flowchart-ViewVocabulary-7" data-look="classic" transform="translate(98, 820)"><rect class="basic label-container" style="" x="-90" y="-27" width="180" height="54"/><g class="label" style="" transform="translate(-60, -12)"><rect/><foreignObject width="120" height="24"><div xmlns="http://www.w3.org/1999/xhtml" style="display: table-cell; white-space: nowrap; line-height: 1.5; max-width: 200px; text-align: center;"><span class="nodeLabel"><p>View Vocabulary</p></span></div></foreignObject></g></g><g class="node default" id="my-svg-flowchart-CreateChat-8" data-look="classic" transform="translate(503, 716)"><rect class="basic label-container" style="" x="-106" y="-27" width="212" height="54"/><g class="label" style="" transform="translate(-76, -12)"><rect/><foreignObject width="152" height="24"><div xmlns="http://www.w3.org/1999/xhtml" style="display: table-cell; white-space: nowrap; line-height: 1.5; max-width: 200px; text-align: center;"><span class="nodeLabel"><p>Create Chat Session</p></span></div></foreignObject></g></g><g class="node default" id="my-svg-flowchart-Chat-9" data-look="classic" transform="translate(585.5, 820)"><rect class="basic label-container" style="" x="-102.5" y="-27" width="205" height="54"/><g class="label" style="" transform="translate(-72.5, -12)"><rect/><foreignObject width="145" height="24"><div xmlns="http://www.w3.org/1999/xhtml" style="display: table-cell; white-space: nowrap; line-height: 1.5; max-width: 200px; text-align: center;"><span class="nodeLabel"><p>Chat with AI Tutor</p></span></div></foreignObject></g></g><g class="node default" id="my-svg-flowchart-UpdateProgress-10" data-look="classic" transform="translate(503, 924)"><rect class="basic label-container" style="" x="-125.5" y="-27" width="251" height="54"/><g class="label" style="" transform="translate(-95.5, -12)"><rect/><foreignObject width="191" height="24"><div xmlns="http://www.w3.org/1999/xhtml" style="display: table-cell; white-space: nowrap; line-height: 1.5; max-width: 200px; text-align: center;"><span class="nodeLabel"><p>Update Learning Progress</p></span></div></foreignObject></g></g></g></g></g><defs><filter id="my-svg-drop-shadow" height="130%" width="130%"><feDropShadow dx="4" dy="4" stdDeviation="0" flood-opacity="0.06" flood-color="#000000"/></filter></defs><defs><filter id="my-svg-drop-shadow-small" height="150%" width="150%"><feDropShadow dx="2" dy="2" stdDeviation="0" flood-opacity="0.06" flood-color="#000000"/></filter></defs></svg>